<?xml version="1.0" standalone="no"?>
<!DOCTYPE svg PUBLIC "-//W3C//DTD SVG 20010904//EN"
 "http://www.w3.org/TR/2001/REC-SVG-20010904/DTD/svg10.dtd">
<svg version="1.0" xmlns="http://www.w3.org/2000/svg"
 width="421.000000pt" height="421.000000pt" viewBox="0 0 421.000000 421.000000"
 preserveAspectRatio="xMidYMid meet">
<metadata>
Created by potrace 1.14, written by Peter Selinger 2001-2017
</metadata>
<g transform="translate(0.000000,421.000000) scale(0.100000,-0.100000)"
fill="#000000" stroke="none">
<path d="M2186 3713 c-4 -4 -17 -8 -29 -9 -12 -1 -33 -5 -47 -9 -37 -10 -141
-13 -172 -4 -16 4 -28 4 -28 -2 0 -5 -3 -8 -7 -7 -19 5 -113 -14 -113 -22 0
-6 -3 -9 -7 -8 -13 3 -83 -25 -83 -34 0 -4 -7 -8 -15 -8 -8 0 -15 -5 -15 -10
0 -6 -4 -9 -8 -8 -15 5 -125 -85 -116 -94 2 -3 -7 -15 -21 -28 -14 -13 -25
-29 -25 -36 0 -7 -9 -15 -19 -19 -26 -8 -73 -56 -68 -70 3 -6 -1 -19 -9 -30
-8 -10 -14 -27 -14 -37 0 -10 -3 -18 -8 -18 -8 0 -52 -91 -52 -108 0 -6 -3
-12 -8 -14 -7 -3 -46 -115 -58 -168 -3 -14 -8 -47 -11 -75 -3 -27 -9 -55 -14
-62 -6 -6 -6 -14 -1 -17 5 -3 7 -25 5 -48 -7 -93 -8 -146 -1 -142 4 3 4 -5 -1
-18 -4 -12 -5 -37 -1 -55 5 -18 4 -35 0 -38 -4 -2 -6 -18 -4 -35 6 -50 11 -84
14 -95 8 -32 -1 -37 -24 -16 -15 14 -30 20 -37 16 -7 -5 -10 -4 -6 2 4 6 -4
11 -18 11 -14 0 -25 -5 -25 -10 0 -5 -4 -7 -9 -4 -10 6 -41 -37 -46 -63 -2 -9
-4 -16 -5 -16 -8 0 -8 -125 0 -130 5 -3 7 -12 4 -19 -3 -8 0 -34 6 -57 7 -24
11 -44 10 -44 -3 0 39 -105 58 -145 20 -42 47 -70 67 -70 26 0 75 -29 75 -45
0 -7 7 -21 16 -29 8 -9 12 -16 7 -16 -4 0 -3 -4 2 -8 11 -8 105 -149 105 -157
0 -5 7 -13 57 -73 13 -15 23 -31 23 -36 0 -5 3 -7 6 -3 3 3 20 -7 38 -24 17
-16 43 -35 59 -42 15 -6 27 -15 27 -19 0 -5 7 -8 15 -8 8 0 15 -5 15 -10 0 -6
3 -9 8 -8 13 3 116 -46 104 -50 -7 -2 -12 -10 -12 -17 0 -8 -9 -17 -20 -20
-11 -3 -20 -11 -20 -17 0 -6 -3 -9 -6 -5 -4 3 -19 0 -35 -9 -16 -8 -31 -14
-34 -14 -3 0 -6 0 -7 -1 -16 -4 -47 -11 -63 -14 -11 -1 -27 -5 -35 -8 -19 -8
-128 -39 -144 -41 -6 -1 -18 -6 -26 -11 -8 -5 -21 -10 -28 -11 -37 -6 -230
-91 -280 -124 -61 -40 -142 -114 -142 -130 0 -5 -4 -10 -10 -10 -5 0 -10 -5
-10 -11 0 -6 -8 -23 -19 -37 -19 -29 -64 -142 -56 -142 3 0 -1 -13 -10 -30 -8
-16 -14 -33 -13 -37 1 -4 -4 -33 -10 -63 -7 -30 -13 -67 -14 -82 -1 -16 -7
-28 -12 -28 -6 0 -5 -5 1 -11 8 -8 7 -20 -3 -44 -7 -18 -10 -35 -7 -38 3 -4 0
-13 -6 -21 -8 -10 -9 -16 -1 -21 6 -3 8 -10 6 -14 -15 -24 -34 -186 -23 -197
2 -2 151 -5 330 -6 180 -2 327 -6 327 -10 0 -4 6 -5 13 -2 24 9 88 10 93 2 3
-5 10 -6 15 -2 17 10 168 11 162 0 -4 -5 -1 -6 8 0 18 11 102 14 394 14 372
-1 535 -4 535 -13 0 -5 5 -5 10 -2 6 3 102 7 215 8 133 1 205 5 205 12 0 6 3
7 8 0 4 -6 62 -10 137 -10 75 0 133 4 137 10 5 7 8 7 8 0 0 -8 130 -10 136 -2
1 1 5 13 9 26 5 16 4 21 -4 17 -8 -5 -8 0 -1 18 5 14 6 26 1 26 -4 0 -8 6 -8
13 0 12 -6 54 -18 127 -3 19 -7 49 -9 65 -3 17 -8 44 -11 60 -4 17 -8 46 -10
65 -1 19 -3 35 -5 35 -2 0 -10 35 -14 60 -1 11 -9 40 -16 65 -7 25 -15 52 -16
59 -6 33 -71 146 -104 180 -48 50 -112 101 -127 101 -7 0 -13 5 -13 11 0 6 -7
8 -16 5 -8 -3 -12 -2 -9 3 5 9 -32 27 -47 23 -5 -1 -8 2 -8 8 0 5 -7 10 -15
10 -8 0 -23 4 -33 9 -61 32 -210 83 -267 93 -11 1 -22 6 -25 9 -3 4 -21 10
-41 13 -35 5 -52 10 -86 23 -10 3 -25 7 -33 9 -8 2 -33 12 -55 24 -21 11 -45
20 -51 20 -6 0 -14 9 -17 20 -3 14 1 21 17 26 29 9 148 67 163 79 7 5 19 16
27 23 8 6 20 12 25 12 6 0 14 6 18 13 4 7 21 22 36 34 15 12 28 24 27 28 0 3
14 23 31 44 17 22 31 43 32 48 0 4 9 17 19 27 9 10 15 23 12 28 -3 4 -2 8 3 8
4 0 19 21 33 48 33 62 69 100 102 106 27 4 71 25 55 26 -4 0 1 10 12 22 11 11
18 25 15 30 -3 4 0 8 5 8 6 0 10 3 9 8 -1 4 3 17 10 30 7 12 9 22 5 22 -4 0
-2 4 5 9 8 5 15 20 15 35 1 14 6 26 11 26 5 0 6 3 3 6 -3 4 -2 14 2 23 5 9 12
41 15 70 3 30 8 57 11 59 3 3 -1 12 -8 20 -10 13 -9 14 1 8 10 -6 12 2 10 34
-1 23 -5 43 -10 46 -4 3 -5 10 -2 17 6 17 -50 70 -78 72 -13 1 -34 -5 -48 -15
-48 -32 -51 -33 -41 -8 4 13 9 56 10 97 1 41 4 78 7 83 3 4 0 8 -7 8 -8 0 -8
4 -2 13 13 15 13 47 0 47 -5 0 -4 7 3 15 6 8 9 18 7 22 -3 5 -8 61 -11 126 -3
65 -8 122 -10 125 -2 4 -7 23 -10 44 -3 20 -16 62 -28 95 -12 32 -21 61 -20
66 1 4 -3 7 -8 7 -6 0 -10 8 -10 18 0 10 -3 22 -7 26 -11 10 -12 106 -2 106 5
0 5 7 2 17 -4 10 -2 14 5 9 6 -3 15 2 21 11 6 10 11 14 11 9 0 -5 7 -3 15 4
20 17 0 53 -54 100 -23 19 -41 40 -41 47 0 7 -7 10 -15 7 -9 -4 -15 0 -15 8 0
14 -80 59 -130 73 -14 4 -30 11 -35 16 -6 4 -22 10 -35 13 -14 3 -49 12 -78
20 -29 8 -55 15 -57 15 -3 1 -7 2 -10 2 -3 1 -13 2 -22 3 -28 3 -65 17 -59 23
17 17 -57 49 -131 57 -23 2 -46 7 -51 10 -5 3 -12 2 -16 -1z"/>
</g>
</svg>
